<?xml version="1.0" standalone="no"?>
<svg xmlns:xlink="http://www.w3.org/1999/xlink" id="wave" style="transform:rotate(0deg); transition: 0.3s" viewBox="0 0 1440 490" version="1.1" xmlns="http://www.w3.org/2000/svg"><defs><linearGradient id="sw-gradient-0" x1="0" x2="0" y1="1" y2="0"><stop stop-color="rgba(224.619, 83.017, 20.361, 1)" offset="0%"/><stop stop-color="rgba(229.173, 14.304, 196.682, 0.32)" offset="100%"/></linearGradient></defs><path style="transform:translate(0, 0px); opacity:1" fill="url(#sw-gradient-0)" d="M0,196L17.1,220.5C34.3,245,69,294,103,326.7C137.1,359,171,376,206,334.8C240,294,274,196,309,155.2C342.9,114,377,131,411,147C445.7,163,480,180,514,204.2C548.6,229,583,261,617,302.2C651.4,343,686,392,720,383.8C754.3,376,789,310,823,302.2C857.1,294,891,343,926,334.8C960,327,994,261,1029,220.5C1062.9,180,1097,163,1131,187.8C1165.7,212,1200,278,1234,318.5C1268.6,359,1303,376,1337,343C1371.4,310,1406,229,1440,163.3C1474.3,98,1509,49,1543,32.7C1577.1,16,1611,33,1646,49C1680,65,1714,82,1749,81.7C1782.9,82,1817,65,1851,81.7C1885.7,98,1920,147,1954,147C1988.6,147,2023,98,2057,114.3C2091.4,131,2126,212,2160,245C2194.3,278,2229,261,2263,245C2297.1,229,2331,212,2366,212.3C2400,212,2434,229,2451,236.8L2468.6,245L2468.6,490L2451.4,490C2434.3,490,2400,490,2366,490C2331.4,490,2297,490,2263,490C2228.6,490,2194,490,2160,490C2125.7,490,2091,490,2057,490C2022.9,490,1989,490,1954,490C1920,490,1886,490,1851,490C1817.1,490,1783,490,1749,490C1714.3,490,1680,490,1646,490C1611.4,490,1577,490,1543,490C1508.6,490,1474,490,1440,490C1405.7,490,1371,490,1337,490C1302.9,490,1269,490,1234,490C1200,490,1166,490,1131,490C1097.1,490,1063,490,1029,490C994.3,490,960,490,926,490C891.4,490,857,490,823,490C788.6,490,754,490,720,490C685.7,490,651,490,617,490C582.9,490,549,490,514,490C480,490,446,490,411,490C377.1,490,343,490,309,490C274.3,490,240,490,206,490C171.4,490,137,490,103,490C68.6,490,34,490,17,490L0,490Z"/><defs><linearGradient id="sw-gradient-1" x1="0" x2="0" y1="1" y2="0"><stop stop-color="rgba(238.28, 57.924, 0, 1)" offset="0%"/><stop stop-color="rgba(242.3, 11, 255, 0.48)" offset="100%"/></linearGradient></defs><path style="transform:translate(0, 50px); opacity:0.9" fill="url(#sw-gradient-1)" d="M0,98L17.1,81.7C34.3,65,69,33,103,73.5C137.1,114,171,229,206,277.7C240,327,274,310,309,326.7C342.9,343,377,392,411,351.2C445.7,310,480,180,514,138.8C548.6,98,583,147,617,163.3C651.4,180,686,163,720,155.2C754.3,147,789,147,823,155.2C857.1,163,891,180,926,196C960,212,994,229,1029,245C1062.9,261,1097,278,1131,285.8C1165.7,294,1200,294,1234,253.2C1268.6,212,1303,131,1337,130.7C1371.4,131,1406,212,1440,245C1474.3,278,1509,261,1543,220.5C1577.1,180,1611,114,1646,81.7C1680,49,1714,49,1749,49C1782.9,49,1817,49,1851,57.2C1885.7,65,1920,82,1954,130.7C1988.6,180,2023,261,2057,245C2091.4,229,2126,114,2160,89.8C2194.3,65,2229,131,2263,171.5C2297.1,212,2331,229,2366,212.3C2400,196,2434,147,2451,122.5L2468.6,98L2468.6,490L2451.4,490C2434.3,490,2400,490,2366,490C2331.4,490,2297,490,2263,490C2228.6,490,2194,490,2160,490C2125.7,490,2091,490,2057,490C2022.9,490,1989,490,1954,490C1920,490,1886,490,1851,490C1817.1,490,1783,490,1749,490C1714.3,490,1680,490,1646,490C1611.4,490,1577,490,1543,490C1508.6,490,1474,490,1440,490C1405.7,490,1371,490,1337,490C1302.9,490,1269,490,1234,490C1200,490,1166,490,1131,490C1097.1,490,1063,490,1029,490C994.3,490,960,490,926,490C891.4,490,857,490,823,490C788.6,490,754,490,720,490C685.7,490,651,490,617,490C582.9,490,549,490,514,490C480,490,446,490,411,490C377.1,490,343,490,309,490C274.3,490,240,490,206,490C171.4,490,137,490,103,490C68.6,490,34,490,17,490L0,490Z"/></svg>